<?xml version="1.0" encoding="UTF-8" standalone="no"?>
<!-- Created with Inkscape (http://www.inkscape.org/) -->

<svg
   xmlns:dc="http://purl.org/dc/elements/1.1/"
   xmlns:cc="http://creativecommons.org/ns#"
   xmlns:rdf="http://www.w3.org/1999/02/22-rdf-syntax-ns#"
   xmlns:svg="http://www.w3.org/2000/svg"
   xmlns="http://www.w3.org/2000/svg"
   xmlns:sodipodi="http://sodipodi.sourceforge.net/DTD/sodipodi-0.dtd"
   xmlns:inkscape="http://www.inkscape.org/namespaces/inkscape"
   width="180"
   height="25"
   id="svg3044"
   version="1.1"
   inkscape:version="0.48.5 r10040"
   sodipodi:docname="gaku-logo.svg"
   inkscape:export-filename="/home/zero/repo/GAKU/gaku/core/app/assets/images/gaku-logo.png"
   inkscape:export-xdpi="129.60001"
   inkscape:export-ydpi="129.60001">
  <defs
     id="defs3046" />
  <sodipodi:namedview
     id="base"
     pagecolor="#ffffff"
     bordercolor="#666666"
     borderopacity="1.0"
     inkscape:pageopacity="0.0"
     inkscape:pageshadow="2"
     inkscape:zoom="8.4852814"
     inkscape:cx="94.799468"
     inkscape:cy="13.249756"
     inkscape:document-units="px"
     inkscape:current-layer="layer1"
     showgrid="false"
     inkscape:window-width="1920"
     inkscape:window-height="1026"
     inkscape:window-x="0"
     inkscape:window-y="26"
     inkscape:window-maximized="1" />
  <metadata
     id="metadata3049">
    <rdf:RDF>
      <cc:Work
         rdf:about="">
        <dc:format>image/svg+xml</dc:format>
        <dc:type
           rdf:resource="http://purl.org/dc/dcmitype/StillImage" />
        <dc:title />
      </cc:Work>
    </rdf:RDF>
  </metadata>
  <g
     id="layer1"
     inkscape:label="Layer 1"
     inkscape:groupmode="layer"
     transform="translate(0,-65)">
    <path
       id="path3065"
       d="m 69.221319,68.876496 0,15.642113 1.98604,0 0,-5.840143 0.567083,-0.567066 6.317406,6.407209 2.778935,0 -7.695323,-7.821065 7.695323,-7.821048 -2.778935,0 -6.876788,6.976842 -0.01291,-6.971724 -1.980922,-0.0048 z m 13.656058,0 0.0048,5.116529 c 0.0048,5.59657 -0.0014,5.172861 0.07185,5.62715 0.141113,0.87464 0.494977,1.736703 1.013558,2.460769 0.433412,0.605154 1.034918,1.166182 1.66019,1.552401 0.858381,0.530222 1.828474,0.830741 2.819992,0.872428 1.440721,0.06054 2.830811,-0.402558 3.941323,-1.311201 1.087407,-0.889753 1.819432,-2.146866 2.05277,-3.525637 0.08041,-0.474988 0.07556,-0.0097 0.0796,-5.663074 l 0.0032,-5.129365 -1.97322,0 -0.0048,5.049815 c -0.0032,3.801034 -0.0065,5.075583 -0.01792,5.155021 -0.0486,0.349455 -0.09703,0.56403 -0.182171,0.821101 -0.252533,0.761976 -0.761782,1.454381 -1.413855,1.916775 -0.902298,0.639834 -2.046311,0.863403 -3.117638,0.60814 -1.105005,-0.263303 -2.03798,-1.002288 -2.545452,-2.016845 -0.207875,-0.415621 -0.320038,-0.793089 -0.387447,-1.298383 -0.01791,-0.134169 -0.02196,-0.6543 -0.02567,-5.193511 l -0.0032,-5.042113 -1.975789,0 z m 93.565333,0 -56.58722,0.0048 0,1.980922 56.58722,0 0,-1.986056 z m -70.24074,0.0048 0,15.621593 11.65206,0.01614 0,-1.986055 -9.67112,0 0,-5.834994 7.67735,0 1.98865,-1.986071 -9.666,0 0,-3.848938 9.666,0 0,-1.980921 -11.64694,0 z m -62.411927,0.0048 c -1.606037,-0.0065 -3.208086,0.480364 -4.572552,1.454898 -0.673724,0.481187 -1.324263,1.131145 -1.811571,1.81157 -0.691564,0.965636 -1.16392,2.108762 -1.352258,3.271601 -0.07943,0.490407 -0.09752,0.734932 -0.09752,1.272695 0,0.541298 0.01808,0.793798 0.09752,1.272727 0.607058,3.662793 3.700203,6.390692 7.410513,6.535502 1.723464,0.06733 3.44273,-0.449139 4.849659,-1.457465 0.684251,-0.49039 1.32423,-1.130339 1.809019,-1.81157 0.898971,-1.263314 1.396596,-2.741445 1.449763,-4.300562 l 0.0081,-0.238632 -7.810797,0 0,1.986056 5.468069,0.02308 c -0.0048,0.0113 -0.02438,0.06378 -0.04359,0.115442 -0.01921,0.05167 -0.07185,0.177665 -0.118025,0.27969 -0.804746,1.776469 -2.429915,3.023201 -4.359574,3.348568 -0.338041,0.057 -0.550695,0.07459 -0.959664,0.07443 -0.40737,-1.29e-4 -0.59637,-0.01453 -0.954544,-0.07443 -2.46274,-0.40758 -4.40186,-2.359181 -4.798364,-4.829154 -0.100425,-0.625351 -0.09639,-1.299624 0.0097,-1.91164 0.427907,-2.454279 2.338741,-4.351711 4.795781,-4.764991 0.329354,-0.05538 0.56424,-0.07443 0.954544,-0.07443 0.390304,0 0.621477,0.01873 0.954545,0.07443 1.79281,0.299743 3.32837,1.403587 4.19279,3.015 0.09913,0.184948 0.249999,0.515626 0.297644,0.654317 l 0.02826,0.08476 1.041779,0 c 0.985415,0 1.040439,5e-5 1.034095,-0.0205 -0.0032,-0.0113 -0.03923,-0.131103 -0.0796,-0.264305 -0.241813,-0.797464 -0.633135,-1.586161 -1.123896,-2.27088 -0.588702,-0.821344 -1.366614,-1.54901 -2.224688,-2.080992 -1.258422,-0.780172 -2.678186,-1.169766 -4.095287,-1.175206 z m 15.619021,0.0048 -7.818478,15.626727 2.216988,-0.0048 1.924477,-3.843803 7.348914,0 1.924459,3.848937 2.217004,0 -7.813364,-15.62671 z m 70.114986,3.969545 -0.005,7.574731 -9.66084,-7.561895 -0.005,11.644346 1.98606,0 0.007,-7.574731 9.66086,7.561895 0.003,-11.644346 -1.98606,0 z m 17.63073,0 0,11.657182 1.98606,0 0,-11.657182 -1.98606,0 z m 13.65863,0 -0.007,7.574731 -9.66084,-7.561895 -0.005,11.644346 1.98607,0 0.007,-7.574731 9.66085,7.561895 0.005,-11.644346 -1.98603,0 z m 3.98492,0 0,11.657182 11.64438,0 0,-1.986055 -9.67113,0 0,-3.848954 7.69276,0 1.96551,-1.975788 -9.65827,-0.0097 0,-1.850045 9.67113,0 0,-1.986073 -11.64438,0 z m -25.46462,0.0081 c -0.38228,0 -0.61325,0.01873 -0.94939,0.07443 -2.45023,0.405722 -4.37949,2.32287 -4.79323,4.767573 -0.0604,0.35635 -0.0736,0.527333 -0.0745,0.959664 -7.2e-4,0.425792 0.01,0.564886 0.0642,0.913486 0.42462,2.739184 2.73917,4.808875 5.50399,4.921523 1.71077,0.06975 3.3431,-0.59818 4.50838,-1.847495 0.95473,-1.023584 1.50415,-2.349929 1.55755,-3.754016 l 0.01,-0.207843 -5.82731,0 0,1.973235 3.27674,0.01291 c 0,0.01663 -0.097,0.16722 -0.18217,0.282257 -1.06491,1.439946 -2.97058,1.959561 -4.60848,1.257324 -1.2023,-0.515465 -2.0677,-1.619017 -2.27858,-2.904676 -0.0664,-0.404239 -0.0664,-0.851085 0,-1.254757 0.23592,-1.435668 1.26482,-2.613249 2.66091,-3.045805 1.09719,-0.339931 2.29889,-0.167092 3.25363,0.469578 0.44706,0.298113 0.87403,0.732979 1.11878,1.139283 l 0.0436,0.07185 2.17849,-0.01292 c 0,-0.05295 -0.20235,-0.505357 -0.33358,-0.749269 -0.85851,-1.59538 -2.39414,-2.693848 -4.18251,-2.991911 -0.33223,-0.05539 -0.56447,-0.07443 -0.94684,-0.07443 z m -79.927213,0.464444 c 0.0081,0 2.676313,5.333817 2.676313,5.350043 l -5.352611,0 c 0,-0.0163 2.668192,-5.350043 2.676298,-5.350043 z"
       style="fill:#f8fbf8;fill-opacity:1"
       inkscape:connector-curvature="0" />
    <path
       inkscape:connector-curvature="0"
       d="M 3.7532048,86.338077 0,77.498297 3.7532787,68.658598 12.822038,65 l 9.066184,3.658355 -1.811144,1.765411 -7.25537,-2.929389 -7.2567814,2.929959 -3.0058534,7.073557 3.006092,7.074124 7.2567918,2.929959 7.257115,-2.929877 2.023855,-4.762537 -2.371222,-2.311347 5.913705,0 -3.754689,8.839701 L 12.820213,90 3.7532048,86.338084 z m 3.7135444,-1.338007 3.9690708,0 0.200322,-0.473832 -1.43e-4,-4.720971 -7.7435518,0 -0.9786741,-2.307132 9.5189489,0 0.306301,-0.342323 -2.9888942,0 -2.3668903,-2.307049 10.8774845,0 -2.67652,2.646941 3.699585,0.0024 2.369475,2.309562 -7.6453,-0.0024 0,4.721138 0.782425,1.850559 -1.970485,0.780908 -5.3531374,-2.157805 z M 4.0415413,74.842279 5.1651028,72.196796 16.779971,72.191863 16.647897,71.540764 16.08915,71.314223 c 0,0 0.625581,-1.185045 0.938363,-1.777647 l 2.800202,1.130271 -1.567005,1.527448 2.218447,0.0024 1.123128,2.644999 -2.639194,0.0017 -0.351109,-0.342323 -11.5800356,0 -0.3511011,0.342323 -2.6392893,-0.0014 z m 1.7747401,-4.175281 2.7982952,-1.12946 0.9382825,1.77643 -2.1706478,0.875373 -1.5659299,-1.522343 z m 5.1401716,-2.073946 1.865754,-0.75441 1.866003,0.753597 -0.417024,1.987172 -1.449394,-0.584577 -1.450145,0.585467 -0.415194,-1.987249 z"
       id="path3914-7-2"
       style="fill:#87caf3;fill-opacity:1;display:inline" />
  </g>
</svg>
