<?xml version="1.0" encoding="utf-8"?>
<!-- Generator: Adobe Illustrator 14.0.0, SVG Export Plug-In . SVG Version: 6.00 Build 43363)  -->
<!DOCTYPE svg PUBLIC "-//W3C//DTD SVG 1.1//EN" "http://www.w3.org/Graphics/SVG/1.1/DTD/svg11.dtd">
<svg version="1.1" id="レイヤー_1" xmlns="http://www.w3.org/2000/svg" xmlns:xlink="http://www.w3.org/1999/xlink" x="0px"
	 y="0px" width="800px" height="600px" viewBox="0 0 800 600" enable-background="new 0 0 800 600" xml:space="preserve">
<g>
	<g>
		<g>
			<path fill="#B3B3B3" d="M91.175,194.392c-4.4,0-8-3.6-8-8v-39.347c0-4.4,3.6-8,8-8h39.794c4.4,0,8,3.6,8,8v39.347
				c0,4.4-3.6,8-8,8H91.175z"/>
		</g>
		<path fill="#FFFFFF" d="M130.969,139.045c4.4,0,8,3.6,8,8v39.347c0,4.4-3.6,8-8,8H91.175c-4.4,0-8-3.6-8-8v-39.347
			c0-4.4,3.6-8,8-8H130.969 M130.969,137.045H91.175c-5.514,0-10,4.486-10,10v39.347c0,5.514,4.486,10,10,10h39.794
			c5.514,0,10-4.486,10-10v-39.347C140.969,141.531,136.483,137.045,130.969,137.045L130.969,137.045z"/>
	</g>
	<g>
		<g>
			<path fill="#C82536" d="M91.175,85.392c-4.4,0-8-3.6-8-8V38.045c0-4.4,3.6-8,8-8h39.794c4.4,0,8,3.6,8,8v39.347c0,4.4-3.6,8-8,8
				H91.175z"/>
		</g>
		<path fill="#FFFFFF" d="M130.969,30.045c4.4,0,8,3.6,8,8v39.347c0,4.4-3.6,8-8,8H91.175c-4.4,0-8-3.6-8-8V38.045c0-4.4,3.6-8,8-8
			H130.969 M130.969,28.045H91.175c-5.514,0-10,4.486-10,10v39.347c0,5.514,4.486,10,10,10h39.794c5.514,0,10-4.486,10-10V38.045
			C140.969,32.531,136.483,28.045,130.969,28.045L130.969,28.045z"/>
	</g>
	<g>
		<g>
			<path fill="#C82536" d="M61.831,95.726c-4.4,0-8-3.6-8-8V48.379c0-4.4,3.6-8,8-8h98.481c4.4,0,8,3.6,8,8v39.347c0,4.4-3.6,8-8,8
				H61.831z"/>
		</g>
		<path fill="#FFFFFF" d="M160.313,40.379c4.4,0,8,3.6,8,8v39.347c0,4.4-3.6,8-8,8H61.831c-4.4,0-8-3.6-8-8V48.379c0-4.4,3.6-8,8-8
			H160.313 M160.313,38.379H61.831c-5.514,0-10,4.486-10,10v39.347c0,5.514,4.486,10,10,10h98.481c5.514,0,10-4.486,10-10V48.379
			C170.313,42.865,165.827,38.379,160.313,38.379L160.313,38.379z"/>
	</g>
	<g>
		<path fill="#FFFFFF" d="M67.698,64.559c-1.65,0-3-1.35-3-3v-8.772c0-1.65,1.35-3,3-3h86.747c1.65,0,3,1.35,3,3v8.772
			c0,1.65-1.35,3-3,3H67.698z"/>
	</g>
	<g>
		<path fill="#C82536" d="M111.072,95.726c-3.243,0-5.897-3.6-5.897-8V48.379c0-4.4,2.654-8,5.897-8s5.897,3.6,5.897,8v39.347
			C116.969,92.125,114.315,95.726,111.072,95.726z"/>
	</g>
	<g>
		<rect x="75.49" y="163.545" fill="#B3B3B3" width="71.164" height="24.188"/>
		<path fill="#FFFFFF" d="M146.654,163.545v24.188H75.49v-24.188H146.654 M148.654,161.545h-2H75.49h-2v2v24.188v2h2h71.164h2v-2
			v-24.188V161.545L148.654,161.545z"/>
	</g>
	<g>
		<g>
			<g>
				<rect x="59.812" y="147.472" fill="#B3B3B3" width="11.389" height="48"/>
				<path fill="#FFFFFF" d="M71.2,147.472v48H59.812v-48H71.2 M73.2,145.472h-2H59.812h-2v2v48v2h2H71.2h2v-2v-48V145.472
					L73.2,145.472z"/>
			</g>
			<g>
				<rect x="68.828" y="140.806" fill="#B3B3B3" width="4.745" height="60.666"/>
				<path fill="#FFFFFF" d="M73.573,140.806v60.666h-4.745v-60.666H73.573 M75.573,138.806h-2h-4.745h-2v2v60.666v2h2h4.745h2v-2
					v-60.666V138.806L75.573,138.806z"/>
			</g>
		</g>
		<g>
			<g>
				<rect x="150.943" y="147.472" fill="#B3B3B3" width="11.389" height="48"/>
				<path fill="#FFFFFF" d="M162.332,147.472v48h-11.389v-48H162.332 M164.332,145.472h-2h-11.389h-2v2v48v2h2h11.389h2v-2v-48
					V145.472L164.332,145.472z"/>
			</g>
			<g>
				<rect x="148.571" y="141.472" fill="#B3B3B3" width="4.745" height="60.666"/>
				<path fill="#FFFFFF" d="M153.316,141.472v60.666h-4.745v-60.666H153.316 M155.316,139.472h-2h-4.745h-2v2v60.666v2h2h4.745h2v-2
					v-60.666V139.472L155.316,139.472z"/>
			</g>
		</g>
	</g>
	<g>
		<g>
			<g>
				<path fill="#C82536" d="M175.064,152.452c0,4.4-3.6,8-8,8h-30.917c-4.4,0-8-3.6-8-8V81.185c0-4.4,3.6-8,8-8h30.917
					c4.4,0,8,3.6,8,8V152.452z"/>
			</g>
			<path fill="#FFFFFF" d="M167.064,73.185c4.4,0,8,3.6,8,8v71.267c0,4.4-3.6,8-8,8h-30.917c-4.4,0-8-3.6-8-8V81.185
				c0-4.4,3.6-8,8-8H167.064 M167.064,71.185h-30.917c-5.514,0-10,4.486-10,10v71.267c0,5.514,4.486,10,10,10h30.917
				c5.514,0,10-4.486,10-10V81.185C177.064,75.671,172.578,71.185,167.064,71.185L167.064,71.185z"/>
		</g>
		<g>
			<g>
				<path fill="#C82536" d="M93.997,153.185c0,4.4-3.6,8-8,8H55.08c-4.4,0-8-3.6-8-8V81.918c0-4.4,3.6-8,8-8h30.917c4.4,0,8,3.6,8,8
					V153.185z"/>
			</g>
			<path fill="#FFFFFF" d="M85.997,73.918c4.4,0,8,3.6,8,8v71.267c0,4.4-3.6,8-8,8H55.08c-4.4,0-8-3.6-8-8V81.918c0-4.4,3.6-8,8-8
				H85.997 M85.997,71.918H55.08c-5.514,0-10,4.486-10,10v71.267c0,5.514,4.486,10,10,10h30.917c5.514,0,10-4.486,10-10V81.918
				C95.997,76.404,91.511,71.918,85.997,71.918L85.997,71.918z"/>
		</g>
	</g>
	<g>
		<g>
			<g>
				<path fill="#C82536" d="M47.073,175.427c-4.4,0-8-3.6-8-8v-15.4c0-4.4,3.6-8,8-8h127.998c4.4,0,8,3.6,8,8v15.4c0,4.4-3.6,8-8,8
					H47.073z"/>
			</g>
			<path fill="#FFFFFF" d="M175.071,144.027c4.4,0,8,3.6,8,8v15.4c0,4.4-3.6,8-8,8H47.073c-4.4,0-8-3.6-8-8v-15.4c0-4.4,3.6-8,8-8
				H175.071 M175.071,142.027H47.073c-5.514,0-10,4.486-10,10v15.4c0,5.514,4.486,10,10,10h127.998c5.514,0,10-4.486,10-10v-15.4
				C185.071,146.513,180.585,142.027,175.071,142.027L175.071,142.027z"/>
		</g>
		<g>
			<g>
				<ellipse fill="#FFFFFF" cx="53.238" cy="159.724" rx="9.407" ry="9.283"/>
				<path fill="#C82536" d="M53.239,166.332c-3.685,0-6.683-2.964-6.683-6.607s2.998-6.607,6.683-6.607s6.683,2.964,6.683,6.607
					S56.923,166.332,53.239,166.332L53.239,166.332z M53.239,155.117c-2.582,0-4.683,2.067-4.683,4.607s2.101,4.607,4.683,4.607
					s4.683-2.067,4.683-4.607S55.821,155.117,53.239,155.117L53.239,155.117z"/>
			</g>
			<g>
				<ellipse fill="#FFFFFF" cx="168.905" cy="159.724" rx="9.406" ry="9.283"/>
				<path fill="#C82536" d="M168.905,166.332c-3.685,0-6.683-2.964-6.683-6.607s2.998-6.607,6.683-6.607s6.683,2.964,6.683,6.607
					S172.589,166.332,168.905,166.332L168.905,166.332z M168.905,155.117c-2.582,0-4.683,2.067-4.683,4.607s2.101,4.607,4.683,4.607
					s4.683-2.067,4.683-4.607S171.487,155.117,168.905,155.117L168.905,155.117z"/>
			</g>
		</g>
	</g>
	<g>
		<circle fill="#FFFFFF" cx="111.072" cy="113.574" r="51.388"/>
		<path fill="#B3B3B3" d="M111.071,69.185c24.476,0,44.389,19.913,44.389,44.389s-19.913,44.389-44.389,44.389
			c-24.476,0-44.388-19.913-44.388-44.389S86.596,69.185,111.071,69.185 M111.071,62.185c-28.381,0-51.388,23.008-51.388,51.389
			c0,28.381,23.007,51.389,51.388,51.389c28.383,0,51.389-23.008,51.389-51.389C162.46,85.192,139.454,62.185,111.071,62.185
			L111.071,62.185z"/>
	</g>
	<path fill="#FFFFFF" d="M111.071,62.518c28.152,0,51.056,22.903,51.056,51.056c0,28.152-22.903,51.055-51.056,51.055
		c-28.151,0-51.054-22.903-51.054-51.055C60.017,85.421,82.92,62.518,111.071,62.518 M111.071,60.518
		c-29.301,0-53.054,23.754-53.054,53.056c0,29.301,23.753,53.055,53.054,53.055c29.303,0,53.056-23.754,53.056-53.055
		C164.126,84.272,140.374,60.518,111.071,60.518L111.071,60.518z"/>
	<path fill="#C82536" d="M111.071,75.435c21.03,0,38.139,17.109,38.139,38.139s-17.109,38.139-38.139,38.139
		c-21.029,0-38.138-17.109-38.138-38.139S90.042,75.435,111.071,75.435 M111.071,72.435c-22.72,0-41.138,18.418-41.138,41.139
		s18.417,41.139,41.138,41.139c22.722,0,41.139-18.418,41.139-41.139S133.793,72.435,111.071,72.435L111.071,72.435z"/>
	<g>
		<g>
			<g>
				<path fill="#91BEF7" d="M128.664,121.054c-1.516-0.33-5.798-0.461-15.548,0.132c0.526,2.7,0.724,5.995,0.724,9.486
					c0,3.689-1.186,8.037-3.886,11.529c-1.252,1.58-2.306,1.515-3.492,0.065c-1.581-1.777-3.755-4.018-4.81-4.94
					c-1.384-1.186-1.186-1.845,0.856-1.515c5.402,0.922,6.127,0.526,7.181-3.428c0.922-3.424,0.922-7.641,0.264-11
					c-3.558,0.264-8.63,0.922-16.931,2.568c-2.174,0.462-3.754,0.396-5.732-0.855c-1.844-1.318-1.712-2.24,0.264-2.107
					c2.108,0.131,12.714-0.791,21.871-1.779c-0.461-1.45-1.053-2.438-1.778-3.031c-0.725-0.725-1.186-1.317-1.054-1.713
					c0.198-0.461,1.713-0.527,3.162,0.066c1.911-1.911,3.163-3.425,3.887-4.612c0.593-1.186,0.066-1.976-1.186-1.713
					c-3.162,0.659-7.708,2.108-8.696,2.636c-1.318,0.724-3.359,0.659-4.414-0.131c-2.371-1.977-1.976-2.702,0.264-2.768
					c6.259-0.132,10.673-0.857,13.242-2.042c2.173-0.988,2.438-0.922,4.479,0.989c3.558,3.293,3.229,3.953,0.988,4.545
					c-1.384,0.33-3.82,1.515-7.247,4.084c0.592,0.791,1.121,1.911,1.514,3.36c6.721-0.526,10.541-1.12,11.925-1.384
					c4.151-0.658,6.983-0.527,8.894,0.659C136.7,120.265,135.711,122.439,128.664,121.054z M126.291,107.022
					c-2.503,1.12-2.766,0.659-1.186-1.449c3.031-4.019,3.163-4.941,0.33-5.27c-2.109-0.264-14.56,0.725-20.357,1.646
					c-6.456,1.054-8.894,1.252-11.792,0.725c-0.461,2.438-2.042,5.797-3.623,8.103c-1.45,2.042-2.569,1.91-3.163,0.198
					c-0.461-1.318-0.395-3.097,0.066-3.755c2.635-4.019,3.425-5.666,3.886-7.444c0.527-1.977,1.45-2.174,2.768,1.45
					c8.564-0.659,16.074-1.516,22.135-2.174c3.886-7.709,4.546-11.925,4.084-13.439c-0.594-1.977-0.329-2.504,3.228-0.857
					c3.821,1.779,3.492,2.899,2.043,3.888c-1.186,0.988-3.887,4.282-7.444,10.145c3.294-0.329,7.576-0.922,7.905-0.988
					c2.768-0.921,4.281-0.791,7.379,1.648c4.216,3.359,4.545,5.599,1.976,5.401C133.539,104.783,129.125,105.705,126.291,107.022z
					 M99.545,95.956c-1.054-1.318-2.24-3.821-3.228-6.984c-0.461-1.383,0-1.845,1.449-1.186c3.425,1.515,5.205,4.941,4.941,6.786
					C102.443,96.746,100.863,97.602,99.545,95.956z M108.504,93.715c-0.922-1.845-1.712-4.349-2.371-6.852
					c-0.396-1.646,0.263-2.042,1.712-1.119c3.821,2.306,4.481,4.282,3.887,7.443C111.337,95.165,109.559,95.757,108.504,93.715z"/>
			</g>
		</g>
	</g>
</g>
<g>
	<g>
		<g>
			<g>
				<polygon fill="#B3B3B3" points="294.486,120.009 260.4,120.009 273.291,67.451 281.594,67.451 				"/>
				<polygon fill="#B3B3B3" points="260.4,128.229 294.486,128.229 281.594,180.787 273.291,180.787 				"/>
			</g>
			<g>
				<polygon fill="#B3B3B3" points="290.148,112.038 260.626,129.081 245.514,77.12 252.706,72.968 				"/>
				<polygon fill="#B3B3B3" points="264.738,136.2 294.26,119.157 309.373,171.119 302.182,175.271 				"/>
			</g>
			<g>
				<polygon fill="#B3B3B3" points="282.405,107.302 265.362,136.824 226.292,99.38 230.443,92.189 				"/>
				<polygon fill="#B3B3B3" points="272.481,140.935 289.524,111.414 328.593,148.856 324.442,156.05 				"/>
			</g>
			<g>
				<polygon fill="#B3B3B3" points="273.333,107.076 273.333,141.162 220.775,128.271 220.775,119.969 				"/>
				<polygon fill="#B3B3B3" points="281.554,141.163 281.554,107.076 334.111,119.969 334.111,128.271 				"/>
			</g>
			<g>
				<polygon fill="#B3B3B3" points="265.361,111.414 282.403,140.935 230.442,156.05 226.292,148.858 				"/>
				<polygon fill="#B3B3B3" points="289.524,136.824 272.48,107.304 324.442,92.19 328.593,99.382 				"/>
			</g>
			<g>
				<polygon fill="#B3B3B3" points="260.626,119.157 290.148,136.2 252.703,175.271 245.514,171.119 				"/>
				<polygon fill="#B3B3B3" points="294.26,129.082 264.738,112.039 302.182,72.968 309.371,77.119 				"/>
			</g>
		</g>
		<circle fill="#B3B3B3" cx="277.443" cy="124.119" r="46.967"/>
	</g>
	<g>
		<path fill="#FFFFFF" d="M321.162,124.12c0,24.146-19.572,43.718-43.72,43.718c-24.146,0-43.718-19.572-43.718-43.718
			c0-24.147,19.572-43.72,43.718-43.72C301.59,80.4,321.162,99.973,321.162,124.12z"/>
	</g>
	<g>
		<g>
			<circle fill="#FFFFFF" cx="277.443" cy="124.12" r="41.722"/>
			<path fill="#C82536" d="M277.442,87.396c20.249,0,36.723,16.475,36.723,36.725c0,20.249-16.474,36.723-36.723,36.723
				c-20.248,0-36.721-16.474-36.721-36.723C240.722,103.87,257.194,87.396,277.442,87.396 M277.442,82.396
				c-23.043,0-41.721,18.68-41.721,41.725c0,23.043,18.678,41.723,41.721,41.723c23.045,0,41.723-18.68,41.723-41.723
				C319.165,101.075,300.487,82.396,277.442,82.396L277.442,82.396z"/>
		</g>
		<path fill="#B3B3B3" d="M277.442,93.136c17.084,0,30.982,13.899,30.982,30.984c0,17.084-13.898,30.982-30.982,30.982
			c-17.083,0-30.98-13.898-30.98-30.982C246.462,107.035,260.36,93.136,277.442,93.136 M277.442,90.136
			c-18.767,0-33.98,15.216-33.98,33.984c0,18.767,15.214,33.982,33.98,33.982c18.771,0,33.982-15.216,33.982-33.982
			C311.425,105.352,296.213,90.136,277.442,90.136L277.442,90.136z"/>
		<g>
			<g>
				<g>
					<path fill="#91BEF7" d="M292.496,130.521c-1.297-0.283-4.96-0.396-13.304,0.112c0.451,2.311,0.62,5.129,0.62,8.117
						c0,3.156-1.015,6.877-3.325,9.865c-1.071,1.353-1.974,1.297-2.987,0.057c-1.354-1.521-3.214-3.438-4.115-4.228
						c-1.184-1.016-1.015-1.579,0.732-1.297c4.624,0.789,5.242,0.45,6.146-2.933c0.789-2.931,0.789-6.538,0.225-9.412
						c-3.045,0.225-7.385,0.789-14.487,2.197c-1.86,0.396-3.213,0.339-4.905-0.732c-1.578-1.128-1.464-1.916,0.227-1.803
						c1.805,0.112,10.88-0.678,18.715-1.522c-0.395-1.24-0.901-2.086-1.522-2.593c-0.619-0.621-1.014-1.128-0.9-1.467
						c0.168-0.394,1.465-0.45,2.704,0.058c1.636-1.636,2.706-2.932,3.326-3.947c0.508-1.014,0.057-1.691-1.014-1.465
						c-2.706,0.564-6.595,1.803-7.441,2.255c-1.128,0.619-2.876,0.563-3.777-0.112c-2.028-1.691-1.691-2.313,0.227-2.369
						c5.354-0.112,9.132-0.732,11.329-1.746c1.86-0.847,2.087-0.79,3.833,0.846c3.045,2.817,2.764,3.382,0.846,3.889
						c-1.183,0.282-3.27,1.296-6.2,3.496c0.508,0.676,0.958,1.634,1.297,2.873c5.749-0.45,9.019-0.957,10.203-1.183
						c3.551-0.563,5.975-0.452,7.61,0.563C299.374,129.844,298.526,131.703,292.496,130.521z M290.467,118.514
						c-2.142,0.958-2.367,0.563-1.015-1.24c2.593-3.438,2.706-4.229,0.281-4.509c-1.804-0.228-12.457,0.618-17.417,1.408
						c-5.524,0.9-7.61,1.071-10.091,0.62c-0.394,2.085-1.748,4.96-3.1,6.935c-1.241,1.746-2.2,1.635-2.706,0.168
						c-0.395-1.128-0.339-2.649,0.056-3.212c2.256-3.439,2.932-4.849,3.325-6.371c0.453-1.691,1.241-1.86,2.369,1.241
						c7.328-0.564,13.754-1.298,18.939-1.861c3.326-6.595,3.89-10.203,3.495-11.499c-0.507-1.69-0.282-2.143,2.763-0.733
						c3.27,1.522,2.987,2.48,1.747,3.326c-1.015,0.846-3.326,3.664-6.37,8.681c2.819-0.28,6.483-0.79,6.765-0.846
						c2.368-0.789,3.664-0.677,6.314,1.41c3.606,2.874,3.888,4.791,1.69,4.621C296.668,116.597,292.89,117.387,290.467,118.514z
						 M267.581,109.043c-0.902-1.128-1.917-3.269-2.762-5.975c-0.396-1.185,0-1.579,1.238-1.016
						c2.932,1.297,4.455,4.228,4.229,5.807C270.061,109.721,268.708,110.452,267.581,109.043z M275.247,107.126
						c-0.789-1.578-1.466-3.721-2.029-5.862c-0.339-1.409,0.225-1.747,1.465-0.959c3.271,1.975,3.834,3.665,3.327,6.371
						C277.67,108.367,276.148,108.874,275.247,107.126z"/>
				</g>
			</g>
		</g>
	</g>
</g>
<g>
	<g>
		<path fill="#98ACD4" d="M377.641,185.215c0.016,0.627,0.004,1.229-0.037,1.806c-0.042,0.577-0.132,1.138-0.272,1.683
			c-0.14,0.544-0.338,1.071-0.594,1.583c-0.256,0.511-0.598,1.014-1.026,1.509c-0.858,0.989-1.896,1.756-3.117,2.3
			c-1.221,0.545-2.482,0.816-3.785,0.816c-1.32,0-2.56-0.256-3.723-0.767s-2.177-1.199-3.042-2.065
			c-0.866-0.865-1.555-1.88-2.065-3.042c-0.512-1.163-0.767-2.403-0.767-3.724c0-1.335,0.255-2.593,0.767-3.771
			c0.511-1.179,1.203-2.206,2.078-3.08c0.874-0.874,1.905-1.566,3.092-2.078c1.188-0.511,2.449-0.767,3.785-0.767
			c1.649,0,3.129,0.351,4.44,1.052s2.461,1.694,3.451,2.98l-1.509,1.41c-0.792-1.104-1.711-1.967-2.758-2.585
			c-1.047-0.618-2.264-0.928-3.649-0.928c-1.072,0-2.069,0.21-2.993,0.631c-0.924,0.42-1.728,0.985-2.412,1.694
			s-1.224,1.533-1.62,2.474c-0.396,0.939-0.594,1.938-0.594,2.993c0,0.989,0.189,1.938,0.569,2.845
			c0.379,0.907,0.915,1.715,1.607,2.424c0.693,0.692,1.5,1.262,2.424,1.707c0.923,0.445,1.88,0.668,2.869,0.668
			c0.808,0,1.608-0.141,2.399-0.421s1.505-0.681,2.14-1.2c0.635-0.519,1.146-1.133,1.534-1.843c0.387-0.708,0.582-1.5,0.582-2.374
			h-5.541v-1.93H377.641z"/>
		<path fill="#98ACD4" d="M382.885,189.296l-2.251,5.294h-2.276l8.608-19.541l8.386,19.541h-2.301l-2.201-5.294H382.885z
			 M386.917,179.896l-3.191,7.471h6.308L386.917,179.896z"/>
		<path fill="#98ACD4" d="M406.903,175.939h2.795l-8.757,8.682l9.054,9.969h-2.869l-7.645-8.559l-0.52,0.52v8.039h-2.077v-18.65
			h2.077v7.989L406.903,175.939z"/>
		<path fill="#98ACD4" d="M413.531,187.045c0,0.347,0,0.701,0,1.064c0,0.362,0.024,0.726,0.074,1.088
			c0.05,0.363,0.132,0.714,0.247,1.052s0.281,0.655,0.495,0.952c0.412,0.577,0.968,1.019,1.669,1.323
			c0.701,0.306,1.398,0.458,2.091,0.458c0.676,0,1.349-0.145,2.017-0.434c0.668-0.288,1.215-0.696,1.645-1.224
			c0.247-0.297,0.433-0.619,0.557-0.965c0.123-0.347,0.214-0.705,0.271-1.076c0.059-0.371,0.087-0.746,0.087-1.126
			c0-0.379,0-0.75,0-1.113v-11.105h2.077v11.675c0,0.512-0.016,0.994-0.049,1.447s-0.104,0.895-0.211,1.323
			s-0.271,0.841-0.494,1.236c-0.223,0.396-0.516,0.784-0.878,1.163c-0.644,0.692-1.406,1.221-2.288,1.583
			c-0.883,0.362-1.793,0.544-2.733,0.544c-0.891,0-1.761-0.16-2.609-0.482c-0.85-0.321-1.587-0.795-2.214-1.422
			c-0.412-0.396-0.738-0.796-0.977-1.2c-0.24-0.403-0.422-0.828-0.545-1.273s-0.207-0.911-0.248-1.397s-0.061-0.993-0.061-1.521
			v-11.675h2.077V187.045z"/>
		<path fill="#B3B3B3" d="M435.076,175.939h9.672v1.929h-7.595v5.541h7.372v1.93h-7.372v7.321h7.595v1.93h-9.672V175.939z"/>
		<path fill="#B3B3B3" d="M447.914,175.147l14.545,15.237v-14.445h2.077v19.491l-14.544-15.212v14.371h-2.078V175.147z"/>
		<path fill="#B3B3B3" d="M485.266,185.215c0.017,0.627,0.004,1.229-0.037,1.806c-0.042,0.577-0.132,1.138-0.272,1.683
			c-0.14,0.544-0.338,1.071-0.594,1.583c-0.256,0.511-0.598,1.014-1.025,1.509c-0.858,0.989-1.896,1.756-3.117,2.3
			c-1.221,0.545-2.482,0.816-3.785,0.816c-1.319,0-2.56-0.256-3.723-0.767c-1.162-0.511-2.176-1.199-3.042-2.065
			c-0.866-0.865-1.555-1.88-2.065-3.042c-0.512-1.163-0.768-2.403-0.768-3.724c0-1.335,0.256-2.593,0.768-3.771
			c0.511-1.179,1.203-2.206,2.078-3.08c0.873-0.874,1.904-1.566,3.092-2.078c1.188-0.511,2.449-0.767,3.784-0.767
			c1.649,0,3.129,0.351,4.44,1.052c1.311,0.701,2.461,1.694,3.45,2.98l-1.509,1.41c-0.791-1.104-1.711-1.967-2.758-2.585
			s-2.264-0.928-3.648-0.928c-1.072,0-2.07,0.21-2.993,0.631c-0.924,0.42-1.728,0.985-2.412,1.694s-1.224,1.533-1.62,2.474
			c-0.396,0.939-0.594,1.938-0.594,2.993c0,0.989,0.189,1.938,0.569,2.845c0.379,0.907,0.915,1.715,1.607,2.424
			c0.692,0.692,1.501,1.262,2.425,1.707c0.923,0.445,1.879,0.668,2.869,0.668c0.808,0,1.607-0.141,2.398-0.421
			c0.792-0.28,1.506-0.681,2.141-1.2c0.635-0.519,1.146-1.133,1.533-1.843c0.387-0.708,0.582-1.5,0.582-2.374h-5.541v-1.93H485.266z
			"/>
		<path fill="#B3B3B3" d="M489.842,194.59h-2.078v-18.65h2.078V194.59z"/>
		<path fill="#B3B3B3" d="M493.255,175.147l14.545,15.237v-14.445h2.077v19.491l-14.544-15.212v14.371h-2.078V175.147z"/>
		<path fill="#B3B3B3" d="M513.267,175.939h9.672v1.929h-7.595v5.541h7.372v1.93h-7.372v7.321h7.595v1.93h-9.672V175.939z"/>
	</g>
	<g>
		<g>
			<polygon fill="#98ACD4" points="455.929,102.677 420.237,102.677 433.735,47.647 442.429,47.647 			"/>
			<polygon fill="#98ACD4" points="420.237,111.285 455.929,111.285 442.429,166.315 433.735,166.315 			"/>
		</g>
		<g>
			<polygon fill="#98ACD4" points="451.388,94.331 420.478,112.176 404.651,57.77 412.181,53.423 			"/>
			<polygon fill="#98ACD4" points="424.78,119.631 455.69,101.786 471.515,156.193 463.985,160.54 			"/>
		</g>
		<g>
			<polygon fill="#98ACD4" points="443.278,89.373 425.433,120.283 384.525,81.078 388.872,73.549 			"/>
			<polygon fill="#98ACD4" points="432.888,124.587 450.733,93.677 491.64,132.883 487.294,140.413 			"/>
		</g>
		<g>
			<polygon fill="#98ACD4" points="433.778,89.135 433.78,124.827 378.75,111.328 378.75,102.635 			"/>
			<polygon fill="#98ACD4" points="442.388,124.828 442.388,89.135 497.417,102.635 497.417,111.329 			"/>
		</g>
		<g>
			<polygon fill="#98ACD4" points="425.433,93.678 443.278,124.587 388.871,140.413 384.525,132.884 			"/>
			<polygon fill="#98ACD4" points="450.733,120.285 432.888,89.375 487.294,73.55 491.64,81.079 			"/>
		</g>
		<g>
			<polygon fill="#98ACD4" points="420.476,101.786 451.386,119.631 412.181,160.54 404.651,156.193 			"/>
			<polygon fill="#98ACD4" points="455.69,112.177 424.78,94.332 463.985,53.423 471.515,57.769 			"/>
		</g>
		<circle fill="#98ACD4" cx="438.083" cy="106.981" r="44"/>
	</g>
	<g>
		<g>
			<path fill="#3B2E45" d="M464.028,125.386c0,0-7.004,11.369-25.611,11.369s-25.611-11.369-25.611-11.369v-14.208V96.967h25.611
				h25.611v14.211V125.386z"/>
			<path fill="#FFFFFF" d="M438.417,138.255c-19.224,0-26.585-11.589-26.889-12.083l-0.223-0.362V95.467h54.223v30.344l-0.223,0.362
				C465.002,126.667,457.641,138.255,438.417,138.255L438.417,138.255z M414.306,124.93c1.298,1.828,8.187,10.326,24.111,10.326
				c15.916,0,22.807-8.488,24.111-10.326V98.467h-48.223V124.93L414.306,124.93z"/>
		</g>
		<g>
			<g>
				<polygon fill="#3B2E45" points="438.417,112.724 365.678,95.836 438.417,78.956 511.155,95.836 				"/>
				<path fill="#FFFFFF" d="M438.417,114.264l-0.339-0.079l-79.034-18.349l79.373-18.42l0.339,0.079l79.033,18.341L438.417,114.264
					L438.417,114.264z M372.312,95.837l66.105,15.347l66.104-15.347l-66.104-15.341L372.312,95.837L372.312,95.837z"/>
			</g>
			<polygon fill="#F7931E" points="505.124,112.087 503.124,112.087 503.124,96.482 440.862,96.482 440.862,94.482 505.124,94.482 
				505.124,112.087 			"/>
			<ellipse fill="#F7931E" cx="438.917" cy="95.483" rx="4.67" ry="2.502"/>
			<g>
				<ellipse fill="#F7931E" cx="504.107" cy="110.479" rx="5.843" ry="3.586"/>
				<path fill="#F7931E" d="M504.106,109.777c-4.74,0-5.715,6.059-5.715,6.059v2.11v17.083v2.11c0,0,0.975,6.058,5.715,6.058
					c4.742,0,5.719-6.058,5.719-6.058v-2.11v-17.083v-2.11C509.825,115.835,508.849,109.777,504.106,109.777z"/>
				<g>
					<polygon fill="#FFFFFF" points="507.56,135.766 506.56,135.766 506.56,117.569 507.56,117.569 507.56,135.766 					"/>
					<polygon fill="#FFFFFF" points="504.608,137.789 503.608,137.789 503.608,119.589 504.608,119.589 504.608,137.789 					"/>
					<polygon fill="#FFFFFF" points="501.657,135.766 500.657,135.766 500.657,117.569 501.657,117.569 501.657,135.766 					"/>
				</g>
			</g>
		</g>
	</g>
</g>
</svg>
