<?xml version="1.0" encoding="UTF-8" standalone="no"?>
<!-- Created with Inkscape (http://www.inkscape.org/) -->

<svg
   xmlns:dc="http://purl.org/dc/elements/1.1/"
   xmlns:cc="http://creativecommons.org/ns#"
   xmlns:rdf="http://www.w3.org/1999/02/22-rdf-syntax-ns#"
   xmlns:svg="http://www.w3.org/2000/svg"
   xmlns="http://www.w3.org/2000/svg"
   xmlns:sodipodi="http://sodipodi.sourceforge.net/DTD/sodipodi-0.dtd"
   xmlns:inkscape="http://www.inkscape.org/namespaces/inkscape"
   width="900"
   height="816"
   id="svg2"
   version="1.1"
   inkscape:version="0.48.2 r9819"
   sodipodi:docname="GAKU Engine G Logo + Text Logo [#87CAF3](900x816px).svg">
  <defs
     id="defs4" />
  <sodipodi:namedview
     id="base"
     pagecolor="#ffffff"
     bordercolor="#666666"
     borderopacity="1.0"
     inkscape:pageopacity="0.0"
     inkscape:pageshadow="2"
     inkscape:zoom="1.4142136"
     inkscape:cx="361.69308"
     inkscape:cy="423.57161"
     inkscape:document-units="px"
     inkscape:current-layer="layer3"
     showgrid="false"
     inkscape:window-width="2559"
     inkscape:window-height="1395"
     inkscape:window-x="0"
     inkscape:window-y="0"
     inkscape:window-maximized="0" />
  <metadata
     id="metadata7">
    <rdf:RDF>
      <cc:Work
         rdf:about="">
        <dc:format>image/svg+xml</dc:format>
        <dc:type
           rdf:resource="http://purl.org/dc/dcmitype/StillImage" />
        <dc:title></dc:title>
      </cc:Work>
    </rdf:RDF>
  </metadata>
  <g
     inkscape:groupmode="layer"
     id="layer2"
     inkscape:label="Text Logo"
     style="display:inline"
     transform="translate(0,-264)">
    <path
       sodipodi:nodetypes="ssscssssccssscsssssssssscccccsssssscccccccccccccccccccccccccssssccccsscsccccssscccccccccccccccccccccccsssccscssssssccssscccccssssscccccccccccccccccccccccccccc"
       inkscape:connector-curvature="0"
       id="path3005"
       d="m 92.49652,1028.1278 c -17.97087,-0.6721 -33.45928,-12.6085 -38.64069,-29.779 -0.77364,-2.56417 -1.3049,-5.24718 -1.60355,-8.10396 -0.1357,-1.29583 -0.14562,-1.56985 -0.14729,-3.95795 0,-2.41502 0.014,-2.65135 0.14771,-4.01295 0.77936,-7.54534 3.33258,-14.3586 7.6411,-20.39122 6.43354,-9.00698 16.339,-15.17203 27.23435,-16.94996 20.79046,-3.39214 40.78916,9.05074 46.91553,29.19048 0.22478,0.73891 0.40895,1.36434 0.40895,1.38975 l -11.12293,0.0463 -0.26192,-0.69592 c -0.33804,-0.89768 -1.03488,-2.39907 -1.60537,-3.45625 -4.5795,-8.4924 -12.87138,-14.40718 -22.41437,-15.99018 -1.81101,-0.30091 -3.06076,-0.3976 -5.10465,-0.39697 -1.48875,5.5e-4 -2.03676,0.0226 -2.94807,0.11811 -6.44526,0.67915 -12.02864,2.99732 -16.99308,7.05693 -1.14754,0.93851 -3.11799,2.90784 -4.08585,4.08338 -4.95007,6.01368 -7.47662,13.43451 -7.19626,21.1368 0.25033,6.89376 2.70877,13.33841 7.16931,18.79901 0.93547,1.1449 2.95296,3.161 4.12732,4.1239 4.91433,4.0314 10.60367,6.3959 16.95163,7.0456 0.93071,0.096 1.49533,0.117 3.00251,0.117 2.06414,-1e-4 3.22522,-0.092 5.07714,-0.3985 10.32164,-1.7122 19.05527,-8.4203 23.38864,-17.9635 0.40016,-0.8811 0.87864,-2.0715 0.87864,-2.18528 l -29.34442,-0.0475 0.0293,-10.64582 41.8803,0 -0.0307,0.69594 c -0.0167,0.38273 -0.0448,1.05243 -0.0629,1.4881 -0.0838,2.07771 -0.50539,5.06298 -1.03932,7.34254 -4.08233,17.44532 -18.81136,30.37352 -36.62808,32.15082 -0.75059,0.075 -1.80696,0.15 -2.34743,0.1673 -0.54032,0.017 -1.21623,0.04 -1.50119,0.051 -0.28509,0.011 -1.08358,-10e-4 -1.77457,-0.027 z m 43.42992,0.034 41.88785,-83.80237 41.85734,83.76147 -11.84393,0.069 -10.29109,-20.582 -39.44428,0 -10.29151,20.5545 z m 56.22966,-31.26929 -14.34181,-28.73032 -14.37173,28.77152 z m 38.27381,-52.56062 10.64565,0 0.0277,37.40854 36.85081,-37.4026 14.95785,-0.006 -41.29974,41.92962 41.29983,41.92755 -14.95794,-0.01 -33.84615,-34.35163 -3.03214,3.08571 0,31.27122 -10.64582,0 z m 103.18353,83.79941 c -6.06696,-0.2373 -12.06563,-2.3066 -17.00605,-5.867 -2.63837,-1.9009 -5.20823,-4.4689 -7.07718,-7.0738 -3.18894,-4.443 -5.07067,-9.3702 -5.74121,-15.036 l -0.11659,-0.9823 c -0.0112,-18.28053 -0.0332,-54.84034 -0.0332,-54.84034 l 10.59017,0 c 0,0 -2.60667,38.80457 0.30867,56.00824 0.79427,4.777 3.40274,9.3211 7.11861,12.4006 3.24038,2.6855 6.99092,4.2536 11.24668,4.7012 0.81103,0.086 3.06155,0.085 3.90354,0 7.39029,-0.7561 13.77182,-5.3036 16.78655,-11.9626 0.90525,-1.9996 1.38416,-3.7392 1.75898,-6.3871 l 0.10011,-54.75844 10.64763,0 -0.0322,54.51274 -0.12218,1.0917 c -0.48421,4.3414 -1.60463,8.0436 -3.52671,11.6562 -5.63283,10.5872 -16.81614,17.0079 -28.80517,16.5389 z m 95.04882,-83.79944 62.45613,0 0,10.64569 -51.83725,0.0277 0,20.58194 51.80994,0.0277 -10.64582,10.64571 -41.1918,0 0.0277,31.2553 51.83718,0.028 0,10.6457 -62.45606,0 z m 73.15805,0.0313 62.4807,59.06064 0.028,-59.0919 10.648,0 0,83.8217 -62.4664,-59.02691 -0.047,59.06231 -10.6423,0 z m 124.3348,83.76534 c -19.0194,-0.6999 -35.1152,-13.9882 -39.3806,-32.50528 -2.9035,-12.61909 0.2302,-25.94263 8.4543,-35.95039 10.131,-12.31719 26.3835,-17.82664 41.8975,-14.19796 14.5547,3.40546 26.2122,14.32029 30.5446,28.611 0.2158,0.70556 0.4057,1.3259 0.422,1.37897 0.028,0.0916 -0.2537,0.0958 -5.5493,0.0826 l -5.5791,-0.014 -0.286,-0.73718 c -2.0983,-5.45001 -6.0085,-10.46009 -10.8927,-13.95704 -3.8775,-2.77752 -8.3659,-4.63538 -13.0781,-5.41778 -1.7976,-0.29965 -3.1171,-0.40316 -5.1011,-0.40316 -1.9897,0 -3.3035,0.10358 -5.1069,0.40316 -13.2071,2.19312 -23.6008,12.59309 -25.7482,25.76255 -0.3054,1.89846 -0.3895,2.98291 -0.3892,5.10467 0,2.12658 0.09,3.26716 0.3991,5.13159 2.2129,13.17435 12.5644,23.50455 25.7383,25.68355 1.8612,0.3075 3.0134,0.398 5.0794,0.3975 2.0736,-6e-4 3.3244,-0.098 5.1286,-0.3992 10.3119,-1.7193 19.0985,-8.4779 23.3819,-17.9842 0.3561,-0.7974 0.8883,-2.1016 0.8883,-2.19087 l -29.3713,-0.0199 0,-10.64582 41.8891,0 -0.037,1.35121 c -0.1243,4.45428 -1.0767,9.23717 -2.6819,13.46968 -5.292,13.9592 -17.6038,24.0574 -32.3203,26.5046 -1.538,0.2554 -3.6915,0.4765 -5.0795,0.5196 -0.5387,0.017 -1.2011,0.04 -1.4733,0.05 -0.2663,0.011 -1.0523,-10e-4 -1.7481,-0.027 z m 54.0815,-83.79661 10.5873,0 0,83.85711 -10.5873,0 z m 21.3694,0.10933 62.4429,58.96198 0.042,-59.07138 10.5932,0 -0.022,83.74778 -62.4494,-58.96215 -0.043,59.07155 -10.5874,0 z m 83.8297,-0.10933 62.4589,0 0,10.6457 -51.8383,0.0277 0,20.58194 51.8105,0.0277 -10.6476,10.6457 -41.1905,0 0.028,31.25527 51.8383,0.028 0,10.6457 -62.459,0 z"
       style="fill:#87caf3;fill-opacity:1;display:inline" />
  </g>
  <g
     inkscape:groupmode="layer"
     id="layer3"
     inkscape:label="G Logo"
     style="display:inline"
     transform="translate(0,-264)">
    <path
       inkscape:connector-curvature="0"
       d="m 259.32251,774.62508 -78.9074,-190.66174 78.90909,-190.6601 190.66181,-78.91088 190.60769,78.90563 -38.07751,38.07752 -152.53714,-63.18289 -152.56685,63.19513 -63.1951,152.56681 63.2003,152.57911 152.56689,63.19507 152.5738,-63.19336 42.5496,-102.72126 -49.8527,-49.85257 124.3299,0 -78.93869,190.6601 -190.69857,78.98599 -190.62513,-78.98252 z m 78.0738,-28.85907 83.44576,0 4.2116,-10.21974 -0.003,-101.82486 -162.80057,0 -20.5757,-49.76164 200.12657,0 6.43975,-7.38341 -62.83862,0 -49.7616,-49.7599 228.6886,0 -56.2713,57.0909 77.7802,0.0542 49.8159,49.81412 -160.73498,-0.0542 0,101.82832 16.44968,39.91417 -41.42753,16.84291 -112.54436,-46.54083 z m -72.0116,-219.08931 23.6217,-57.05945 244.19129,-0.10667 -2.77691,-14.04334 -11.7471,-4.88618 c 0,0 13.1522,-25.55975 19.7282,-38.34137 l 58.8715,24.37839 -32.9448,32.94494 46.6407,0.0542 23.6127,57.04896 -55.4865,0.0418 -7.3817,-7.38344 -243.45899,0 -7.3816,7.38344 -55.4884,-0.0309 z m 37.3121,-90.05505 58.8314,-24.36094 19.7265,38.31517 -45.6357,18.88058 -32.9222,-32.83481 z m 108.06705,-44.73217 39.22565,-16.27151 39.23092,16.25402 -8.7675,42.86053 -30.47213,-12.60856 -30.48785,12.6278 -8.72905,-42.86228 z"
       id="path3914-7"
       style="fill:#87caf3;fill-opacity:1" />
  </g>
</svg>
