<?xml version="1.0" encoding="utf-8"?>
<!-- Generator: Adobe Illustrator 14.0.0, SVG Export Plug-In . SVG Version: 6.00 Build 43363)  -->
<!DOCTYPE svg PUBLIC "-//W3C//DTD SVG 1.1//EN" "http://www.w3.org/Graphics/SVG/1.1/DTD/svg11.dtd">
<svg version="1.1" id="レイヤー_1" xmlns="http://www.w3.org/2000/svg" xmlns:xlink="http://www.w3.org/1999/xlink" x="0px"
	 y="0px" width="800px" height="600px" viewBox="0 0 800 600" enable-background="new 0 0 800 600" xml:space="preserve">
<g>
	<path fill="#98ACD4" d="M373.683,309.085c0.035,1.379,0.009,2.701-0.08,3.971c-0.09,1.269-0.292,2.501-0.598,3.698
		c-0.309,1.196-0.745,2.356-1.305,3.481c-0.563,1.124-1.316,2.229-2.259,3.317c-1.886,2.176-4.171,3.861-6.853,5.058
		c-2.683,1.198-5.458,1.794-8.321,1.794c-2.902,0-5.63-0.563-8.184-1.686c-2.558-1.122-4.789-2.637-6.691-4.541
		c-1.905-1.902-3.418-4.134-4.542-6.688c-1.125-2.557-1.686-5.285-1.686-8.188c0-2.936,0.561-5.701,1.686-8.292
		c1.123-2.592,2.646-4.851,4.567-6.773c1.925-1.922,4.19-3.444,6.798-4.569c2.611-1.123,5.385-1.686,8.323-1.686
		c3.624,0,6.88,0.771,9.761,2.313c2.884,1.542,5.413,3.726,7.588,6.553l-3.317,3.102c-1.742-2.429-3.762-4.325-6.064-5.684
		c-2.304-1.359-4.977-2.04-8.023-2.04c-2.355,0-4.548,0.462-6.579,1.387c-2.031,0.924-3.801,2.167-5.303,3.726
		c-1.504,1.559-2.693,3.372-3.563,5.439c-0.87,2.065-1.307,4.26-1.307,6.581c0,2.176,0.417,4.261,1.252,6.256
		c0.833,1.994,2.011,3.77,3.534,5.328c1.525,1.523,3.298,2.775,5.33,3.754c2.031,0.979,4.136,1.47,6.309,1.47
		c1.778,0,3.537-0.311,5.278-0.927c1.74-0.615,3.308-1.496,4.703-2.639c1.396-1.141,2.52-2.49,3.374-4.052
		c0.852-1.558,1.278-3.298,1.278-5.22h-12.184v-4.243H373.683z"/>
	<path fill="#98ACD4" d="M385.214,318.059l-4.949,11.64h-5.005l18.927-42.966l18.438,42.966h-5.059l-4.84-11.64H385.214z
		 M394.079,297.391l-7.016,16.426h13.869L394.079,297.391z"/>
	<path fill="#98ACD4" d="M438.025,288.69h6.146l-19.254,19.089l19.907,21.919h-6.309l-16.81-18.818l-1.143,1.142v17.677h-4.566
		V288.69h4.566v17.567L438.025,288.69z"/>
	<path fill="#98ACD4" d="M452.599,313.108c0,0.763,0,1.542,0,2.341c0,0.797,0.055,1.596,0.163,2.392
		c0.11,0.799,0.289,1.57,0.543,2.313s0.619,1.44,1.089,2.094c0.907,1.269,2.128,2.238,3.67,2.909
		c1.541,0.672,3.075,1.008,4.598,1.008c1.485,0,2.965-0.319,4.434-0.955c1.469-0.633,2.671-1.53,3.615-2.689
		c0.544-0.653,0.951-1.361,1.226-2.122c0.27-0.762,0.469-1.551,0.596-2.366c0.13-0.816,0.191-1.641,0.191-2.476
		c0-0.832,0-1.649,0-2.448V288.69h4.566v25.671c0,1.124-0.034,2.186-0.106,3.182c-0.073,0.997-0.228,1.967-0.464,2.909
		c-0.235,0.942-0.598,1.849-1.087,2.72c-0.489,0.87-1.134,1.724-1.93,2.557c-1.415,1.522-3.093,2.684-5.031,3.479
		c-1.941,0.798-3.942,1.196-6.01,1.196c-1.958,0-3.871-0.352-5.738-1.06c-1.867-0.707-3.489-1.748-4.867-3.127
		c-0.907-0.869-1.624-1.75-2.147-2.64c-0.527-0.886-0.928-1.82-1.198-2.8c-0.271-0.979-0.455-2.003-0.546-3.071
		c-0.09-1.07-0.133-2.185-0.133-3.346V288.69h4.567V313.108z"/>
	<path fill="#B3B3B3" d="M499.972,288.69h21.266v4.241h-16.699v12.183h16.21v4.243h-16.21v16.098h16.699v4.243h-21.266V288.69z"/>
	<path fill="#B3B3B3" d="M528.199,286.949l31.98,33.503V288.69h4.567v42.856L532.768,298.1v31.599h-4.568V286.949z"/>
	<path fill="#B3B3B3" d="M610.326,309.085c0.036,1.379,0.009,2.701-0.082,3.971c-0.092,1.269-0.289,2.501-0.599,3.698
		c-0.307,1.196-0.742,2.356-1.306,3.481c-0.563,1.124-1.314,2.229-2.254,3.317c-1.888,2.176-4.171,3.861-6.854,5.058
		c-2.685,1.198-5.459,1.794-8.323,1.794c-2.9,0-5.628-0.563-8.186-1.686c-2.555-1.122-4.784-2.637-6.688-4.541
		c-1.904-1.902-3.417-4.134-4.541-6.688c-1.125-2.557-1.687-5.285-1.687-8.188c0-2.936,0.562-5.701,1.687-8.292
		c1.124-2.592,2.646-4.851,4.569-6.773c1.92-1.922,4.188-3.444,6.798-4.569c2.611-1.123,5.386-1.686,8.32-1.686
		c3.627,0,6.881,0.771,9.765,2.313c2.881,1.542,5.411,3.726,7.585,6.553l-3.316,3.102c-1.739-2.429-3.763-4.325-6.064-5.684
		c-2.301-1.359-4.977-2.04-8.021-2.04c-2.358,0-4.552,0.462-6.582,1.387c-2.03,0.924-3.798,2.167-5.303,3.726
		c-1.506,1.559-2.691,3.372-3.563,5.439c-0.869,2.065-1.306,4.26-1.306,6.581c0,2.176,0.417,4.261,1.252,6.256
		c0.833,1.994,2.012,3.77,3.534,5.328c1.522,1.523,3.3,2.775,5.331,3.754c2.03,0.979,4.131,1.47,6.31,1.47
		c1.774,0,3.534-0.311,5.273-0.927c1.741-0.615,3.312-1.496,4.706-2.639c1.396-1.141,2.52-2.49,3.372-4.052
		c0.85-1.558,1.279-3.298,1.279-5.22h-12.184v-4.243H610.326z"/>
	<path fill="#B3B3B3" d="M620.389,329.698h-4.569V288.69h4.569V329.698z"/>
	<path fill="#B3B3B3" d="M627.892,286.949l31.981,33.503V288.69h4.568v42.856L632.462,298.1v31.599h-4.57V286.949z"/>
	<path fill="#B3B3B3" d="M671.895,288.69h21.266v4.241h-16.699v12.183h16.21v4.243h-16.21v16.098h16.699v4.243h-21.266V288.69z"/>
</g>
<g>
	<path fill="#98ACD4" d="M294.77,305.166v-8.693l-16.127-3.956c-0.4-2.095-0.949-4.136-1.636-6.114l11.985-11.487l-4.346-7.528
		l-15.953,4.64c-1.381-1.594-2.873-3.086-4.467-4.467l4.64-15.955l-7.528-4.346l-11.487,11.986
		c-1.978-0.686-4.019-1.235-6.113-1.635l-3.956-16.127h-8.693l-3.956,16.127c-2.094,0.4-4.134,0.95-6.111,1.635l-11.487-11.986
		l-7.529,4.347l4.641,15.954c-1.594,1.38-3.086,2.873-4.466,4.466l-15.955-4.64l-4.347,7.528l11.987,11.488
		c-0.687,1.978-1.235,4.019-1.636,6.114l-16.127,3.956v8.692l16.127,3.956c0.4,2.094,0.949,4.135,1.635,6.112l-11.986,11.488
		l4.346,7.528l15.955-4.641c1.381,1.594,2.873,3.086,4.467,4.466l-4.641,15.955l7.528,4.347l11.488-11.986
		c1.978,0.686,4.018,1.234,6.111,1.635l3.956,16.127h8.693l3.956-16.127c2.095-0.4,4.135-0.949,6.112-1.635l11.488,11.986
		l7.529-4.347l-4.641-15.955c1.594-1.38,3.086-2.872,4.466-4.466l15.954,4.641l4.346-7.529l-11.985-11.486
		c0.686-1.979,1.235-4.018,1.636-6.112L294.77,305.166z"/>
	<g>
		<g>
			<path fill="#3B2E45" d="M235.43,307.022l-20.771-4.822v18.898c1.623,1.659,8.826,8.227,21.11,8.227
				c12.341,0,19.495-6.559,21.111-8.224V302.2l-21.111,4.901L235.43,307.022z"/>
			<polygon fill="#3B2E45" points="235.769,304.021 301.873,288.674 235.769,273.333 169.664,288.674 			"/>
			<path fill="#FFFFFF" d="M315.141,288.673l-79.033-18.341l-0.339-0.079l-79.372,18.42l55.262,12.831v20.73l0.352,0.418
				c0.333,0.396,8.313,9.673,23.759,9.673s23.427-9.277,23.759-9.672l0.353-0.419v-20.73L315.141,288.673z M169.664,288.674
				l66.104-15.341l66.104,15.341l-66.104,15.347L169.664,288.674z M256.88,321.102c-1.616,1.665-8.771,8.224-21.111,8.224
				c-12.284,0-19.487-6.567-21.11-8.227V302.2l20.771,4.822l0.339,0.079l21.111-4.901V321.102z"/>
		</g>
		<g>
			<path fill="#F7931E" d="M282.819,306.316c0-1.77-2.092-3.237-4.843-3.529v-9.325l-37.198-5.758
				c-0.516-1.081-2.331-1.884-4.51-1.884c-2.579,0-4.67,1.12-4.67,2.5c0,1.382,2.091,2.502,4.67,2.502
				c1.67,0,3.125-0.474,3.95-1.181l35.758,5.535v7.611c-2.75,0.293-4.843,1.76-4.843,3.529c0,0.842,0.476,1.614,1.267,2.227
				c-0.882,1.547-1.142,3.13-1.142,3.13v2.11v17.083v2.11c0,0,0.977,6.058,5.717,6.058s5.717-6.058,5.717-6.058v-2.11v-17.083v-2.11
				c0,0-0.259-1.581-1.142-3.129C282.343,307.932,282.819,307.158,282.819,306.316z"/>
			<g>
				<polygon fill="#FFFFFF" points="280.427,331.604 279.427,331.604 279.427,313.406 280.427,313.406 280.427,331.604 				"/>
				<polygon fill="#FFFFFF" points="277.476,333.626 276.476,333.626 276.476,315.427 277.476,315.427 277.476,333.626 				"/>
				<polygon fill="#FFFFFF" points="274.524,331.604 273.524,331.604 273.524,313.406 274.524,313.406 274.524,331.604 				"/>
			</g>
		</g>
	</g>
</g>
</svg>
